<mxfile host="app.diagrams.net" modified="2022-05-05T14:51:59.375Z" agent="5.0 (X11)" etag="QkU72jNzZlJ311Vw51mw" version="17.5.0" type="github">
  <diagram id="T5TLAatCbtVXXhCoBw2x" name="Page-1">
    <mxGraphModel dx="2500" dy="2068" grid="1" gridSize="10" guides="1" tooltips="1" connect="1" arrows="1" fold="1" page="1" pageScale="1" pageWidth="827" pageHeight="1169" math="0" shadow="0">
      <root>
        <mxCell id="0" />
        <mxCell id="1" parent="0" />
        <mxCell id="Z2O5uWB8J5TpZVNlAOfy-1" value="Actor" style="shape=umlActor;verticalLabelPosition=bottom;verticalAlign=top;html=1;outlineConnect=0;" vertex="1" parent="1">
          <mxGeometry x="220" y="-120" width="30" height="60" as="geometry" />
        </mxCell>
        <mxCell id="Z2O5uWB8J5TpZVNlAOfy-2" value="&lt;b&gt;API&lt;/b&gt;" style="rounded=1;whiteSpace=wrap;html=1;" vertex="1" parent="1">
          <mxGeometry x="140" y="10" width="120" height="60" as="geometry" />
        </mxCell>
        <mxCell id="Z2O5uWB8J5TpZVNlAOfy-3" value="" style="endArrow=classic;html=1;rounded=0;fontSize=13;exitX=0.5;exitY=1;exitDx=0;exitDy=0;entryX=0.365;entryY=0;entryDx=0;entryDy=0;entryPerimeter=0;" edge="1" parent="1" source="Z2O5uWB8J5TpZVNlAOfy-2" target="Z2O5uWB8J5TpZVNlAOfy-4">
          <mxGeometry width="50" height="50" relative="1" as="geometry">
            <mxPoint x="390" y="420" as="sourcePoint" />
            <mxPoint x="375" y="210" as="targetPoint" />
            <Array as="points" />
          </mxGeometry>
        </mxCell>
        <mxCell id="Z2O5uWB8J5TpZVNlAOfy-4" value="&lt;div style=&quot;font-size: 14px&quot; align=&quot;left&quot;&gt;&lt;font style=&quot;font-size: 14px&quot;&gt;&lt;b&gt;Controller&lt;/b&gt;&lt;/font&gt;&lt;/div&gt;" style="rounded=0;whiteSpace=wrap;html=1;fontSize=13;align=left;" vertex="1" parent="1">
          <mxGeometry x="-240" y="140" width="1280" height="270" as="geometry" />
        </mxCell>
        <mxCell id="Z2O5uWB8J5TpZVNlAOfy-5" value="" style="endArrow=classic;html=1;rounded=0;fontSize=13;exitX=0.413;exitY=1;exitDx=0;exitDy=0;exitPerimeter=0;" edge="1" parent="1" source="Z2O5uWB8J5TpZVNlAOfy-4" target="Z2O5uWB8J5TpZVNlAOfy-6">
          <mxGeometry width="50" height="50" relative="1" as="geometry">
            <mxPoint x="250" y="420" as="sourcePoint" />
            <mxPoint x="90" y="510" as="targetPoint" />
            <Array as="points" />
          </mxGeometry>
        </mxCell>
        <mxCell id="Z2O5uWB8J5TpZVNlAOfy-19" value="" style="endArrow=classic;html=1;rounded=0;fontSize=13;" edge="1" parent="1" source="Z2O5uWB8J5TpZVNlAOfy-7" target="Z2O5uWB8J5TpZVNlAOfy-10">
          <mxGeometry width="50" height="50" relative="1" as="geometry">
            <mxPoint x="480" y="760" as="sourcePoint" />
            <mxPoint x="483.24" y="817" as="targetPoint" />
            <Array as="points" />
          </mxGeometry>
        </mxCell>
        <mxCell id="Z2O5uWB8J5TpZVNlAOfy-47" value="UserResource" style="swimlane;fontStyle=1;align=center;verticalAlign=top;childLayout=stackLayout;horizontal=1;startSize=26;horizontalStack=0;resizeParent=1;resizeParentMax=0;resizeLast=0;collapsible=1;marginBottom=0;fontSize=14;" vertex="1" parent="1">
          <mxGeometry x="-100" y="190" width="220" height="120" as="geometry" />
        </mxCell>
        <mxCell id="Z2O5uWB8J5TpZVNlAOfy-48" value="- userService: UserService" style="text;strokeColor=none;fillColor=none;align=left;verticalAlign=top;spacingLeft=4;spacingRight=4;overflow=hidden;rotatable=0;points=[[0,0.5],[1,0.5]];portConstraint=eastwest;fontSize=14;" vertex="1" parent="Z2O5uWB8J5TpZVNlAOfy-47">
          <mxGeometry y="26" width="220" height="26" as="geometry" />
        </mxCell>
        <mxCell id="Z2O5uWB8J5TpZVNlAOfy-49" value="" style="line;strokeWidth=1;fillColor=none;align=left;verticalAlign=middle;spacingTop=-1;spacingLeft=3;spacingRight=3;rotatable=0;labelPosition=right;points=[];portConstraint=eastwest;fontSize=14;" vertex="1" parent="Z2O5uWB8J5TpZVNlAOfy-47">
          <mxGeometry y="52" width="220" height="8" as="geometry" />
        </mxCell>
        <mxCell id="Z2O5uWB8J5TpZVNlAOfy-50" value="+ getAllUsers(): List&lt;UserDto&gt;&#xa;+ currentUser(principal: Principal):&#xa;UserDto&#xa;&#xa;" style="text;strokeColor=none;fillColor=none;align=left;verticalAlign=top;spacingLeft=4;spacingRight=4;overflow=hidden;rotatable=0;points=[[0,0.5],[1,0.5]];portConstraint=eastwest;fontSize=14;" vertex="1" parent="Z2O5uWB8J5TpZVNlAOfy-47">
          <mxGeometry y="60" width="220" height="60" as="geometry" />
        </mxCell>
        <mxCell id="Z2O5uWB8J5TpZVNlAOfy-51" value="MultimediaController" style="swimlane;fontStyle=1;align=center;verticalAlign=top;childLayout=stackLayout;horizontal=1;startSize=26;horizontalStack=0;resizeParent=1;resizeParentMax=0;resizeLast=0;collapsible=1;marginBottom=0;fontSize=14;" vertex="1" parent="1">
          <mxGeometry x="170" y="190" width="180" height="160" as="geometry" />
        </mxCell>
        <mxCell id="Z2O5uWB8J5TpZVNlAOfy-52" value="- logger: Logger&#xa;- multimediaService:&#xa;MultimediaService&#xa;" style="text;strokeColor=none;fillColor=none;align=left;verticalAlign=top;spacingLeft=4;spacingRight=4;overflow=hidden;rotatable=0;points=[[0,0.5],[1,0.5]];portConstraint=eastwest;fontSize=14;" vertex="1" parent="Z2O5uWB8J5TpZVNlAOfy-51">
          <mxGeometry y="26" width="180" height="64" as="geometry" />
        </mxCell>
        <mxCell id="Z2O5uWB8J5TpZVNlAOfy-53" value="" style="line;strokeWidth=1;fillColor=none;align=left;verticalAlign=middle;spacingTop=-1;spacingLeft=3;spacingRight=3;rotatable=0;labelPosition=right;points=[];portConstraint=eastwest;fontSize=14;" vertex="1" parent="Z2O5uWB8J5TpZVNlAOfy-51">
          <mxGeometry y="90" width="180" height="8" as="geometry" />
        </mxCell>
        <mxCell id="Z2O5uWB8J5TpZVNlAOfy-54" value="+ downloadMedia(id: long): &#xa;ResponseEntity&lt;byte[]&gt;&#xa;+ deleteMedia(id: Long)&#xa;" style="text;strokeColor=none;fillColor=none;align=left;verticalAlign=top;spacingLeft=4;spacingRight=4;overflow=hidden;rotatable=0;points=[[0,0.5],[1,0.5]];portConstraint=eastwest;fontSize=14;" vertex="1" parent="Z2O5uWB8J5TpZVNlAOfy-51">
          <mxGeometry y="98" width="180" height="62" as="geometry" />
        </mxCell>
        <mxCell id="Z2O5uWB8J5TpZVNlAOfy-72" value="" style="endArrow=classic;html=1;rounded=0;fontSize=14;entryX=0.75;entryY=0;entryDx=0;entryDy=0;" edge="1" parent="1" source="Z2O5uWB8J5TpZVNlAOfy-1" target="Z2O5uWB8J5TpZVNlAOfy-2">
          <mxGeometry width="50" height="50" relative="1" as="geometry">
            <mxPoint x="450" y="60" as="sourcePoint" />
            <mxPoint x="500" y="10" as="targetPoint" />
          </mxGeometry>
        </mxCell>
        <mxCell id="Z2O5uWB8J5TpZVNlAOfy-137" value="" style="group" vertex="1" connectable="0" parent="1">
          <mxGeometry x="-360" y="1650" width="1080" height="220" as="geometry" />
        </mxCell>
        <mxCell id="Z2O5uWB8J5TpZVNlAOfy-10" value="&lt;div style=&quot;font-size: 14px&quot;&gt;&lt;font style=&quot;font-size: 14px&quot;&gt;&lt;b&gt;Database&lt;/b&gt;&lt;/font&gt;&lt;/div&gt;" style="shape=cylinder3;whiteSpace=wrap;html=1;boundedLbl=1;backgroundOutline=1;size=15;fontSize=13;align=left;" vertex="1" parent="Z2O5uWB8J5TpZVNlAOfy-137">
          <mxGeometry width="1080" height="220" as="geometry" />
        </mxCell>
        <mxCell id="Z2O5uWB8J5TpZVNlAOfy-11" value="User" style="swimlane;fontStyle=1;align=center;verticalAlign=top;childLayout=stackLayout;horizontal=1;startSize=26;horizontalStack=0;resizeParent=1;resizeParentMax=0;resizeLast=0;collapsible=1;marginBottom=0;fontSize=14;" vertex="1" parent="Z2O5uWB8J5TpZVNlAOfy-137">
          <mxGeometry x="100" y="60" width="320" height="128" as="geometry" />
        </mxCell>
        <mxCell id="Z2O5uWB8J5TpZVNlAOfy-12" value="- id: Long&#xa;- username: String&#xa;- password: String&#xa;- email: String&#xa;- mediaFile: List&lt;Multimedia&gt;&#xa;&#xa;" style="text;strokeColor=none;fillColor=none;align=left;verticalAlign=top;spacingLeft=4;spacingRight=4;overflow=hidden;rotatable=0;points=[[0,0.5],[1,0.5]];portConstraint=eastwest;fontSize=14;" vertex="1" parent="Z2O5uWB8J5TpZVNlAOfy-11">
          <mxGeometry y="26" width="320" height="94" as="geometry" />
        </mxCell>
        <mxCell id="Z2O5uWB8J5TpZVNlAOfy-13" value="" style="line;strokeWidth=1;fillColor=none;align=left;verticalAlign=middle;spacingTop=-1;spacingLeft=3;spacingRight=3;rotatable=0;labelPosition=right;points=[];portConstraint=eastwest;fontSize=14;" vertex="1" parent="Z2O5uWB8J5TpZVNlAOfy-11">
          <mxGeometry y="120" width="320" height="8" as="geometry" />
        </mxCell>
        <mxCell id="Z2O5uWB8J5TpZVNlAOfy-15" value="Multimedia" style="swimlane;fontStyle=1;align=center;verticalAlign=top;childLayout=stackLayout;horizontal=1;startSize=26;horizontalStack=0;resizeParent=1;resizeParentMax=0;resizeLast=0;collapsible=1;marginBottom=0;fontSize=14;" vertex="1" parent="Z2O5uWB8J5TpZVNlAOfy-137">
          <mxGeometry x="630" y="60" width="340" height="128" as="geometry" />
        </mxCell>
        <mxCell id="Z2O5uWB8J5TpZVNlAOfy-16" value="- id: Long&#xa;- fileName: String&#xa;- contentType: String&#xa;- storageFileName: String&#xa;- user: User&#xa;&#xa;&#xa;&#xa;" style="text;strokeColor=none;fillColor=none;align=left;verticalAlign=top;spacingLeft=4;spacingRight=4;overflow=hidden;rotatable=0;points=[[0,0.5],[1,0.5]];portConstraint=eastwest;fontSize=14;" vertex="1" parent="Z2O5uWB8J5TpZVNlAOfy-15">
          <mxGeometry y="26" width="340" height="94" as="geometry" />
        </mxCell>
        <mxCell id="Z2O5uWB8J5TpZVNlAOfy-17" value="" style="line;strokeWidth=1;fillColor=none;align=left;verticalAlign=middle;spacingTop=-1;spacingLeft=3;spacingRight=3;rotatable=0;labelPosition=right;points=[];portConstraint=eastwest;fontSize=14;" vertex="1" parent="Z2O5uWB8J5TpZVNlAOfy-15">
          <mxGeometry y="120" width="340" height="8" as="geometry" />
        </mxCell>
        <mxCell id="Z2O5uWB8J5TpZVNlAOfy-25" value="" style="endArrow=diamondThin;endFill=1;endSize=24;html=1;rounded=0;fontSize=14;" edge="1" parent="Z2O5uWB8J5TpZVNlAOfy-137" source="Z2O5uWB8J5TpZVNlAOfy-11" target="Z2O5uWB8J5TpZVNlAOfy-15">
          <mxGeometry width="160" relative="1" as="geometry">
            <mxPoint x="480" y="960" as="sourcePoint" />
            <mxPoint x="730" y="960" as="targetPoint" />
          </mxGeometry>
        </mxCell>
        <mxCell id="Z2O5uWB8J5TpZVNlAOfy-26" value="1..*" style="edgeLabel;html=1;align=center;verticalAlign=middle;resizable=0;points=[];fontSize=14;" vertex="1" connectable="0" parent="Z2O5uWB8J5TpZVNlAOfy-25">
          <mxGeometry x="-0.5133" relative="1" as="geometry">
            <mxPoint as="offset" />
          </mxGeometry>
        </mxCell>
        <mxCell id="Z2O5uWB8J5TpZVNlAOfy-27" value="1" style="edgeLabel;html=1;align=center;verticalAlign=middle;resizable=0;points=[];fontSize=14;" vertex="1" connectable="0" parent="Z2O5uWB8J5TpZVNlAOfy-25">
          <mxGeometry x="0.6757" relative="1" as="geometry">
            <mxPoint as="offset" />
          </mxGeometry>
        </mxCell>
        <mxCell id="Z2O5uWB8J5TpZVNlAOfy-140" value="" style="group" vertex="1" connectable="0" parent="1">
          <mxGeometry x="-360" y="750" width="1290" height="810" as="geometry" />
        </mxCell>
        <mxCell id="Z2O5uWB8J5TpZVNlAOfy-139" value="" style="group" vertex="1" connectable="0" parent="Z2O5uWB8J5TpZVNlAOfy-140">
          <mxGeometry x="80" y="660" width="1080" height="150" as="geometry" />
        </mxCell>
        <mxCell id="Z2O5uWB8J5TpZVNlAOfy-7" value="&lt;div style=&quot;font-size: 14px&quot; align=&quot;left&quot;&gt;&lt;font style=&quot;font-size: 14px&quot;&gt;&lt;b&gt;Re&lt;span class=&quot;VIiyi&quot; lang=&quot;en&quot;&gt;&lt;span class=&quot;JLqJ4b ChMk0b C1N51c&quot;&gt;&lt;span class=&quot;Q4iAWc&quot;&gt;pository&lt;/span&gt;&lt;/span&gt;&lt;/span&gt;&lt;/b&gt;&lt;/font&gt;&lt;/div&gt;" style="rounded=0;whiteSpace=wrap;html=1;fontSize=13;align=left;" vertex="1" parent="Z2O5uWB8J5TpZVNlAOfy-139">
          <mxGeometry width="1080" height="150" as="geometry" />
        </mxCell>
        <mxCell id="Z2O5uWB8J5TpZVNlAOfy-28" value="&lt;div&gt;«interface»&lt;b&gt;&lt;br&gt;&lt;/b&gt;&lt;/div&gt;&lt;div&gt;&lt;b&gt;User&lt;/b&gt;&lt;font style=&quot;font-size: 14px&quot;&gt;&lt;b&gt;Re&lt;span class=&quot;VIiyi&quot; lang=&quot;en&quot;&gt;&lt;span class=&quot;JLqJ4b ChMk0b C1N51c&quot;&gt;&lt;span class=&quot;Q4iAWc&quot;&gt;pository&lt;/span&gt;&lt;/span&gt;&lt;/span&gt;&lt;/b&gt;&lt;/font&gt;&lt;/div&gt;" style="html=1;fontSize=14;" vertex="1" parent="Z2O5uWB8J5TpZVNlAOfy-139">
          <mxGeometry x="405" y="50" width="140" height="50" as="geometry" />
        </mxCell>
        <mxCell id="Z2O5uWB8J5TpZVNlAOfy-29" value="&lt;div&gt;«interface»&lt;b&gt;&lt;br&gt;&lt;/b&gt;&lt;/div&gt;&lt;div&gt;&lt;b&gt;Multimedia&lt;/b&gt;&lt;font style=&quot;font-size: 14px&quot;&gt;&lt;b&gt;Re&lt;span class=&quot;VIiyi&quot; lang=&quot;en&quot;&gt;&lt;span class=&quot;JLqJ4b ChMk0b C1N51c&quot;&gt;&lt;span class=&quot;Q4iAWc&quot;&gt;pository&lt;/span&gt;&lt;/span&gt;&lt;/span&gt;&lt;/b&gt;&lt;/font&gt;&lt;/div&gt;" style="html=1;fontSize=14;" vertex="1" parent="Z2O5uWB8J5TpZVNlAOfy-139">
          <mxGeometry x="580" y="50" width="160" height="50" as="geometry" />
        </mxCell>
        <mxCell id="Z2O5uWB8J5TpZVNlAOfy-58" value="" style="endArrow=block;endSize=16;endFill=0;html=1;rounded=0;fontSize=14;entryX=1;entryY=0.5;entryDx=0;entryDy=0;" edge="1" parent="Z2O5uWB8J5TpZVNlAOfy-139" source="Z2O5uWB8J5TpZVNlAOfy-28" target="Z2O5uWB8J5TpZVNlAOfy-64">
          <mxGeometry x="0.8639" y="60" width="160" relative="1" as="geometry">
            <mxPoint x="320" y="-360" as="sourcePoint" />
            <mxPoint x="280" y="-430" as="targetPoint" />
            <mxPoint as="offset" />
          </mxGeometry>
        </mxCell>
        <mxCell id="Z2O5uWB8J5TpZVNlAOfy-59" value="" style="endArrow=block;endSize=16;endFill=0;html=1;rounded=0;fontSize=14;" edge="1" parent="Z2O5uWB8J5TpZVNlAOfy-139" source="Z2O5uWB8J5TpZVNlAOfy-29" target="Z2O5uWB8J5TpZVNlAOfy-65">
          <mxGeometry x="-0.1779" y="18" width="160" relative="1" as="geometry">
            <mxPoint x="816.8338554216867" y="-400" as="sourcePoint" />
            <mxPoint x="940" y="-390" as="targetPoint" />
            <Array as="points">
              <mxPoint x="760" y="70" />
            </Array>
            <mxPoint as="offset" />
          </mxGeometry>
        </mxCell>
        <mxCell id="Z2O5uWB8J5TpZVNlAOfy-64" value="&lt;div&gt;«interface»&lt;/div&gt;&lt;div&gt;&lt;b&gt;J&lt;/b&gt;&lt;font style=&quot;font-size: 14px&quot;&gt;&lt;b&gt;&lt;span class=&quot;VIiyi&quot; lang=&quot;en&quot;&gt;&lt;span class=&quot;JLqJ4b ChMk0b C1N51c&quot;&gt;&lt;span class=&quot;Q4iAWc&quot;&gt;pa&lt;/span&gt;&lt;/span&gt;&lt;/span&gt;&lt;/b&gt;&lt;/font&gt;&lt;font style=&quot;font-size: 14px&quot;&gt;&lt;b&gt;Re&lt;span class=&quot;VIiyi&quot; lang=&quot;en&quot;&gt;&lt;span class=&quot;JLqJ4b ChMk0b C1N51c&quot;&gt;&lt;span class=&quot;Q4iAWc&quot;&gt;pository&amp;lt;User, Long&amp;gt;&lt;/span&gt;&lt;/span&gt;&lt;/span&gt;&lt;/b&gt;&lt;/font&gt;&lt;/div&gt;" style="html=1;fontSize=14;" vertex="1" parent="Z2O5uWB8J5TpZVNlAOfy-139">
          <mxGeometry x="130" y="50" width="200" height="50" as="geometry" />
        </mxCell>
        <mxCell id="Z2O5uWB8J5TpZVNlAOfy-65" value="«interface»&lt;br&gt;&lt;div&gt;&lt;b&gt;J&lt;/b&gt;&lt;font style=&quot;font-size: 14px&quot;&gt;&lt;b&gt;&lt;span class=&quot;VIiyi&quot; lang=&quot;en&quot;&gt;&lt;span class=&quot;JLqJ4b ChMk0b C1N51c&quot;&gt;&lt;span class=&quot;Q4iAWc&quot;&gt;pa&lt;/span&gt;&lt;/span&gt;&lt;/span&gt;&lt;/b&gt;&lt;/font&gt;&lt;font style=&quot;font-size: 14px&quot;&gt;&lt;b&gt;Re&lt;span class=&quot;VIiyi&quot; lang=&quot;en&quot;&gt;&lt;span class=&quot;JLqJ4b ChMk0b C1N51c&quot;&gt;&lt;span class=&quot;Q4iAWc&quot;&gt;pository&amp;lt;Multimedia, Long&amp;gt;&lt;/span&gt;&lt;/span&gt;&lt;/span&gt;&lt;/b&gt;&lt;/font&gt;&lt;/div&gt;" style="html=1;fontSize=14;" vertex="1" parent="Z2O5uWB8J5TpZVNlAOfy-139">
          <mxGeometry x="800" y="50" width="250" height="50" as="geometry" />
        </mxCell>
        <mxCell id="Z2O5uWB8J5TpZVNlAOfy-8" value="" style="endArrow=classic;html=1;rounded=0;fontSize=13;entryX=0.462;entryY=0;entryDx=0;entryDy=0;entryPerimeter=0;" edge="1" parent="Z2O5uWB8J5TpZVNlAOfy-140" source="Z2O5uWB8J5TpZVNlAOfy-6" target="Z2O5uWB8J5TpZVNlAOfy-7">
          <mxGeometry width="50" height="50" relative="1" as="geometry">
            <mxPoint x="614.5" y="-100" as="sourcePoint" />
            <mxPoint x="614.5" y="-60" as="targetPoint" />
            <Array as="points" />
          </mxGeometry>
        </mxCell>
        <mxCell id="Z2O5uWB8J5TpZVNlAOfy-192" value="" style="group" vertex="1" connectable="0" parent="Z2O5uWB8J5TpZVNlAOfy-140">
          <mxGeometry y="100" width="1290" height="490" as="geometry" />
        </mxCell>
        <mxCell id="Z2O5uWB8J5TpZVNlAOfy-6" value="&lt;div align=&quot;left&quot;&gt;&lt;font style=&quot;font-size: 14px&quot;&gt;&lt;b&gt;Service&lt;/b&gt;&lt;/font&gt;&lt;/div&gt;" style="rounded=0;whiteSpace=wrap;html=1;fontSize=13;align=left;" vertex="1" parent="Z2O5uWB8J5TpZVNlAOfy-192">
          <mxGeometry width="1290" height="490" as="geometry" />
        </mxCell>
        <mxCell id="Z2O5uWB8J5TpZVNlAOfy-43" value="AuthService" style="swimlane;fontStyle=1;align=center;verticalAlign=top;childLayout=stackLayout;horizontal=1;startSize=26;horizontalStack=0;resizeParent=1;resizeParentMax=0;resizeLast=0;collapsible=1;marginBottom=0;fontSize=14;" vertex="1" parent="Z2O5uWB8J5TpZVNlAOfy-192">
          <mxGeometry x="654" y="36.94999999999999" width="276" height="121.28999999999999" as="geometry" />
        </mxCell>
        <mxCell id="Z2O5uWB8J5TpZVNlAOfy-44" value="- userRepository: &#xa;UserRepository" style="text;strokeColor=none;fillColor=none;align=left;verticalAlign=top;spacingLeft=4;spacingRight=4;overflow=hidden;rotatable=0;points=[[0,0.5],[1,0.5]];portConstraint=eastwest;fontSize=14;" vertex="1" parent="Z2O5uWB8J5TpZVNlAOfy-43">
          <mxGeometry y="26" width="276" height="41.29" as="geometry" />
        </mxCell>
        <mxCell id="Z2O5uWB8J5TpZVNlAOfy-45" value="" style="line;strokeWidth=1;fillColor=none;align=left;verticalAlign=middle;spacingTop=-1;spacingLeft=3;spacingRight=3;rotatable=0;labelPosition=right;points=[];portConstraint=eastwest;fontSize=14;" vertex="1" parent="Z2O5uWB8J5TpZVNlAOfy-43">
          <mxGeometry y="67.28999999999999" width="276" height="12.705882352941178" as="geometry" />
        </mxCell>
        <mxCell id="Z2O5uWB8J5TpZVNlAOfy-46" value="+ loadUserByUsername(username: String):&#xa;UserDetails" style="text;strokeColor=none;fillColor=none;align=left;verticalAlign=top;spacingLeft=4;spacingRight=4;overflow=hidden;rotatable=0;points=[[0,0.5],[1,0.5]];portConstraint=eastwest;fontSize=14;" vertex="1" parent="Z2O5uWB8J5TpZVNlAOfy-43">
          <mxGeometry y="79.99588235294117" width="276" height="41.294117647058826" as="geometry" />
        </mxCell>
        <mxCell id="Z2O5uWB8J5TpZVNlAOfy-61" value="&lt;p style=&quot;margin: 0px ; margin-top: 4px ; text-align: center&quot;&gt;&lt;i&gt;&amp;lt;&amp;lt;Interface&amp;gt;&amp;gt;&lt;/i&gt;&lt;/p&gt;&lt;p style=&quot;margin: 0px ; margin-top: 4px ; text-align: center&quot;&gt;&lt;b&gt;UserDetailService&lt;/b&gt;&lt;b&gt;&lt;/b&gt;&lt;b&gt;&lt;/b&gt;&lt;/p&gt;&lt;hr size=&quot;1&quot;&gt;&lt;hr size=&quot;1&quot;&gt;&lt;p style=&quot;margin: 0px ; margin-left: 4px&quot;&gt;+ loadUserByUsername(username: String):&lt;br&gt;UserDetails&lt;/p&gt;" style="verticalAlign=top;align=left;overflow=fill;fontSize=12;fontFamily=Helvetica;html=1;" vertex="1" parent="Z2O5uWB8J5TpZVNlAOfy-192">
          <mxGeometry x="990" y="36.94999999999999" width="240" height="103.05" as="geometry" />
        </mxCell>
        <mxCell id="Z2O5uWB8J5TpZVNlAOfy-86" value="&lt;p style=&quot;margin: 0px ; margin-top: 4px ; text-align: center&quot;&gt;&lt;i&gt;&amp;lt;&amp;lt;Interface&amp;gt;&amp;gt;&lt;/i&gt;&lt;b&gt;&lt;br&gt;&lt;/b&gt;&lt;/p&gt;&lt;p style=&quot;margin: 0px ; margin-top: 4px ; text-align: center&quot;&gt;&lt;b&gt;UserService&lt;/b&gt;&lt;br&gt;&lt;b&gt;&lt;/b&gt;&lt;/p&gt;&lt;hr size=&quot;1&quot;&gt;&lt;hr size=&quot;1&quot;&gt;&lt;p style=&quot;margin: 0px ; margin-left: 4px&quot;&gt;+ create(userDto: UserDto)&lt;br&gt;+ findAllUsers(): List&amp;lt;UserDto&amp;gt;&lt;br&gt;+ findUsersByName(username: String): &lt;br&gt;UserDto&lt;/p&gt;&lt;div&gt;&lt;br&gt;&lt;br&gt;&lt;/div&gt;" style="verticalAlign=top;align=left;overflow=fill;fontSize=12;fontFamily=Helvetica;html=1;" vertex="1" parent="Z2O5uWB8J5TpZVNlAOfy-192">
          <mxGeometry x="353" y="36.94999999999999" width="217" height="123.05" as="geometry" />
        </mxCell>
        <mxCell id="Z2O5uWB8J5TpZVNlAOfy-94" value="MulltimediaServiceImpl" style="swimlane;fontStyle=1;align=center;verticalAlign=top;childLayout=stackLayout;horizontal=1;startSize=26;horizontalStack=0;resizeParent=1;resizeParentMax=0;resizeLast=0;collapsible=1;marginBottom=0;fontSize=14;" vertex="1" parent="Z2O5uWB8J5TpZVNlAOfy-192">
          <mxGeometry x="60" y="250" width="200" height="209.99588235294118" as="geometry" />
        </mxCell>
        <mxCell id="Z2O5uWB8J5TpZVNlAOfy-95" value="- logger: Logger&#xa;- multimediaRepository:&#xa;MultimedisRepository&#xa;- storagePath: String&#xa;" style="text;strokeColor=none;fillColor=none;align=left;verticalAlign=top;spacingLeft=4;spacingRight=4;overflow=hidden;rotatable=0;points=[[0,0.5],[1,0.5]];portConstraint=eastwest;fontSize=14;" vertex="1" parent="Z2O5uWB8J5TpZVNlAOfy-94">
          <mxGeometry y="26" width="200" height="74" as="geometry" />
        </mxCell>
        <mxCell id="Z2O5uWB8J5TpZVNlAOfy-96" value="" style="line;strokeWidth=1;fillColor=none;align=left;verticalAlign=middle;spacingTop=-1;spacingLeft=3;spacingRight=3;rotatable=0;labelPosition=right;points=[];portConstraint=eastwest;fontSize=14;" vertex="1" parent="Z2O5uWB8J5TpZVNlAOfy-94">
          <mxGeometry y="100" width="200" height="12.705882352941178" as="geometry" />
        </mxCell>
        <mxCell id="Z2O5uWB8J5TpZVNlAOfy-97" value="+ getMultimediaById(id: long): &#xa;Optional&lt;MultimediaDto&gt;&#xa;+ create(multimedia: byte[]): &#xa;String&#xa;+ deleteById(id: Long)&#xa;" style="text;strokeColor=none;fillColor=none;align=left;verticalAlign=top;spacingLeft=4;spacingRight=4;overflow=hidden;rotatable=0;points=[[0,0.5],[1,0.5]];portConstraint=eastwest;fontSize=14;" vertex="1" parent="Z2O5uWB8J5TpZVNlAOfy-94">
          <mxGeometry y="112.70588235294117" width="200" height="97.29" as="geometry" />
        </mxCell>
        <mxCell id="Z2O5uWB8J5TpZVNlAOfy-98" value="&lt;p style=&quot;margin: 0px ; margin-top: 4px ; text-align: center&quot;&gt;&lt;i&gt;&amp;lt;&amp;lt;Interface&amp;gt;&amp;gt;&lt;/i&gt;&lt;/p&gt;&lt;p style=&quot;margin: 0px ; margin-top: 4px ; text-align: center&quot;&gt;&lt;b&gt;Mulltimedia&lt;/b&gt;&lt;b&gt;Service&lt;/b&gt;&lt;b&gt;&lt;/b&gt;&lt;/p&gt;&lt;hr size=&quot;1&quot;&gt;&lt;hr size=&quot;1&quot;&gt;&lt;p style=&quot;margin: 0px ; margin-left: 4px&quot;&gt;+ getMultimediaById(id: long): &lt;br&gt;Optional&amp;lt;MultimediaDto&amp;gt;&lt;br&gt;+ create(multimedia: byte[]): &lt;br&gt;String&lt;br&gt;+ deleteById(id: Long)&lt;/p&gt;&lt;div&gt;&lt;br&gt;&lt;br&gt;&lt;/div&gt;" style="verticalAlign=top;align=left;overflow=fill;fontSize=12;fontFamily=Helvetica;html=1;" vertex="1" parent="Z2O5uWB8J5TpZVNlAOfy-192">
          <mxGeometry x="370" y="323.53" width="190" height="136.47" as="geometry" />
        </mxCell>
        <mxCell id="Z2O5uWB8J5TpZVNlAOfy-82" value="UserServiceImpl" style="swimlane;fontStyle=1;align=center;verticalAlign=top;childLayout=stackLayout;horizontal=1;startSize=26;horizontalStack=0;resizeParent=1;resizeParentMax=0;resizeLast=0;collapsible=1;marginBottom=0;fontSize=14;" vertex="1" parent="Z2O5uWB8J5TpZVNlAOfy-192">
          <mxGeometry x="60" y="30" width="253" height="189.99588235294118" as="geometry" />
        </mxCell>
        <mxCell id="Z2O5uWB8J5TpZVNlAOfy-83" value="- userRepository: &#xa;UserRepository&#xa;- passwordEncoder: &#xa;BCryptPasswordEncoder&#xa;" style="text;strokeColor=none;fillColor=none;align=left;verticalAlign=top;spacingLeft=4;spacingRight=4;overflow=hidden;rotatable=0;points=[[0,0.5],[1,0.5]];portConstraint=eastwest;fontSize=14;fontStyle=0" vertex="1" parent="Z2O5uWB8J5TpZVNlAOfy-82">
          <mxGeometry y="26" width="253" height="69.88" as="geometry" />
        </mxCell>
        <mxCell id="Z2O5uWB8J5TpZVNlAOfy-84" value="" style="line;strokeWidth=1;fillColor=none;align=left;verticalAlign=middle;spacingTop=-1;spacingLeft=3;spacingRight=3;rotatable=0;labelPosition=right;points=[];portConstraint=eastwest;fontSize=14;" vertex="1" parent="Z2O5uWB8J5TpZVNlAOfy-82">
          <mxGeometry y="95.88" width="253" height="12.705882352941176" as="geometry" />
        </mxCell>
        <mxCell id="Z2O5uWB8J5TpZVNlAOfy-85" value="+ create(userDto: UserDto)&#xa;+ findAllUsers(): List&lt;UserDto&gt;&#xa;+ findUsersByName(username: String): &#xa;UserDto&#xa;" style="text;strokeColor=none;fillColor=none;align=left;verticalAlign=top;spacingLeft=4;spacingRight=4;overflow=hidden;rotatable=0;points=[[0,0.5],[1,0.5]];portConstraint=eastwest;fontSize=14;" vertex="1" parent="Z2O5uWB8J5TpZVNlAOfy-82">
          <mxGeometry y="108.58588235294117" width="253" height="81.41" as="geometry" />
        </mxCell>
        <mxCell id="Z2O5uWB8J5TpZVNlAOfy-63" value="" style="endArrow=block;dashed=1;endFill=0;endSize=12;html=1;rounded=0;fontSize=14;" edge="1" parent="Z2O5uWB8J5TpZVNlAOfy-192" source="Z2O5uWB8J5TpZVNlAOfy-43" target="Z2O5uWB8J5TpZVNlAOfy-61">
          <mxGeometry width="160" relative="1" as="geometry">
            <mxPoint x="910" y="975.5882352941176" as="sourcePoint" />
            <mxPoint x="865.6944444444443" y="929.5294117647059" as="targetPoint" />
            <Array as="points" />
          </mxGeometry>
        </mxCell>
        <mxCell id="Z2O5uWB8J5TpZVNlAOfy-99" value="" style="endArrow=block;dashed=1;endFill=0;endSize=12;html=1;rounded=0;fontSize=14;entryX=0;entryY=0.75;entryDx=0;entryDy=0;" edge="1" parent="Z2O5uWB8J5TpZVNlAOfy-192" source="Z2O5uWB8J5TpZVNlAOfy-94" target="Z2O5uWB8J5TpZVNlAOfy-98">
          <mxGeometry width="160" relative="1" as="geometry">
            <mxPoint x="170" y="1471.9117647058822" as="sourcePoint" />
            <mxPoint x="330" y="1471.9117647058822" as="targetPoint" />
          </mxGeometry>
        </mxCell>
        <mxCell id="Z2O5uWB8J5TpZVNlAOfy-87" value="" style="endArrow=block;dashed=1;endFill=0;endSize=12;html=1;rounded=0;fontSize=14;entryX=0;entryY=0.75;entryDx=0;entryDy=0;" edge="1" parent="Z2O5uWB8J5TpZVNlAOfy-192" source="Z2O5uWB8J5TpZVNlAOfy-82" target="Z2O5uWB8J5TpZVNlAOfy-86">
          <mxGeometry width="160" relative="1" as="geometry">
            <mxPoint x="170" y="1253.5294117647059" as="sourcePoint" />
            <mxPoint x="330" y="1253.5294117647059" as="targetPoint" />
          </mxGeometry>
        </mxCell>
        <mxCell id="Z2O5uWB8J5TpZVNlAOfy-141" value="" style="endArrow=classic;html=1;rounded=0;fontSize=14;" edge="1" parent="1" source="Z2O5uWB8J5TpZVNlAOfy-4" target="Z2O5uWB8J5TpZVNlAOfy-136">
          <mxGeometry width="50" height="50" relative="1" as="geometry">
            <mxPoint x="190" y="460" as="sourcePoint" />
            <mxPoint x="240" y="410" as="targetPoint" />
          </mxGeometry>
        </mxCell>
        <mxCell id="Z2O5uWB8J5TpZVNlAOfy-143" value="" style="endArrow=classic;html=1;rounded=0;fontSize=14;" edge="1" parent="1" source="Z2O5uWB8J5TpZVNlAOfy-6" target="Z2O5uWB8J5TpZVNlAOfy-136">
          <mxGeometry width="50" height="50" relative="1" as="geometry">
            <mxPoint x="389" y="670" as="sourcePoint" />
            <mxPoint x="439" y="620" as="targetPoint" />
          </mxGeometry>
        </mxCell>
        <mxCell id="Z2O5uWB8J5TpZVNlAOfy-160" value="AuthController" style="swimlane;fontStyle=1;align=center;verticalAlign=top;childLayout=stackLayout;horizontal=1;startSize=26;horizontalStack=0;resizeParent=1;resizeParentMax=0;resizeLast=0;collapsible=1;marginBottom=0;fontSize=14;" vertex="1" parent="1">
          <mxGeometry x="390" y="190" width="220" height="180" as="geometry" />
        </mxCell>
        <mxCell id="Z2O5uWB8J5TpZVNlAOfy-161" value="- userService: UserService" style="text;strokeColor=none;fillColor=none;align=left;verticalAlign=top;spacingLeft=4;spacingRight=4;overflow=hidden;rotatable=0;points=[[0,0.5],[1,0.5]];portConstraint=eastwest;fontSize=14;" vertex="1" parent="Z2O5uWB8J5TpZVNlAOfy-160">
          <mxGeometry y="26" width="220" height="26" as="geometry" />
        </mxCell>
        <mxCell id="Z2O5uWB8J5TpZVNlAOfy-162" value="" style="line;strokeWidth=1;fillColor=none;align=left;verticalAlign=middle;spacingTop=-1;spacingLeft=3;spacingRight=3;rotatable=0;labelPosition=right;points=[];portConstraint=eastwest;fontSize=14;" vertex="1" parent="Z2O5uWB8J5TpZVNlAOfy-160">
          <mxGeometry y="52" width="220" height="8" as="geometry" />
        </mxCell>
        <mxCell id="Z2O5uWB8J5TpZVNlAOfy-163" value="+ loginPage(): String&#xa;+ registerPage(model: Model):&#xa;String&#xa;+ registerNewUser(user: UserDto,&#xa;bindingResult: BindingResult):&#xa;String&#xa;&#xa;&#xa;" style="text;strokeColor=none;fillColor=none;align=left;verticalAlign=top;spacingLeft=4;spacingRight=4;overflow=hidden;rotatable=0;points=[[0,0.5],[1,0.5]];portConstraint=eastwest;fontSize=14;" vertex="1" parent="Z2O5uWB8J5TpZVNlAOfy-160">
          <mxGeometry y="60" width="220" height="120" as="geometry" />
        </mxCell>
        <mxCell id="Z2O5uWB8J5TpZVNlAOfy-168" value="MessageController" style="swimlane;fontStyle=1;align=center;verticalAlign=top;childLayout=stackLayout;horizontal=1;startSize=26;horizontalStack=0;resizeParent=1;resizeParentMax=0;resizeLast=0;collapsible=1;marginBottom=0;fontSize=14;" vertex="1" parent="1">
          <mxGeometry x="660" y="190" width="350" height="210" as="geometry" />
        </mxCell>
        <mxCell id="Z2O5uWB8J5TpZVNlAOfy-169" value="- messageTemplate: SimpMessagingTemplate&#xa;- userService: UserService&#xa;- logger: Logger&#xa;&#xa;" style="text;strokeColor=none;fillColor=none;align=left;verticalAlign=top;spacingLeft=4;spacingRight=4;overflow=hidden;rotatable=0;points=[[0,0.5],[1,0.5]];portConstraint=eastwest;fontSize=14;" vertex="1" parent="Z2O5uWB8J5TpZVNlAOfy-168">
          <mxGeometry y="26" width="350" height="64" as="geometry" />
        </mxCell>
        <mxCell id="Z2O5uWB8J5TpZVNlAOfy-170" value="" style="line;strokeWidth=1;fillColor=none;align=left;verticalAlign=middle;spacingTop=-1;spacingLeft=3;spacingRight=3;rotatable=0;labelPosition=right;points=[];portConstraint=eastwest;fontSize=14;" vertex="1" parent="Z2O5uWB8J5TpZVNlAOfy-168">
          <mxGeometry y="90" width="350" height="8" as="geometry" />
        </mxCell>
        <mxCell id="Z2O5uWB8J5TpZVNlAOfy-171" value="+ sendMessage(chatMessage: ChatMessage): &#xa;ChatMessage&#xa;+ sendPersonalMessage(chatMessage: ChatMessage,&#xa;headerAccessor: SimpMessageHeaderAccessor)&#xa;+ newUser(chatMessage: ChatMessage): &#xa;ChatMessage&#xa;" style="text;strokeColor=none;fillColor=none;align=left;verticalAlign=top;spacingLeft=4;spacingRight=4;overflow=hidden;rotatable=0;points=[[0,0.5],[1,0.5]];portConstraint=eastwest;fontSize=14;" vertex="1" parent="Z2O5uWB8J5TpZVNlAOfy-168">
          <mxGeometry y="98" width="350" height="112" as="geometry" />
        </mxCell>
        <mxCell id="Z2O5uWB8J5TpZVNlAOfy-190" value="" style="group" vertex="1" connectable="0" parent="1">
          <mxGeometry x="320" y="450" width="700" height="210" as="geometry" />
        </mxCell>
        <mxCell id="Z2O5uWB8J5TpZVNlAOfy-136" value="&lt;div align=&quot;left&quot;&gt;&lt;b&gt;Dto&lt;br&gt;&lt;/b&gt;&lt;/div&gt;" style="rounded=0;whiteSpace=wrap;html=1;fontSize=14;align=left;" vertex="1" parent="Z2O5uWB8J5TpZVNlAOfy-190">
          <mxGeometry width="700" height="210" as="geometry" />
        </mxCell>
        <mxCell id="Z2O5uWB8J5TpZVNlAOfy-144" value="UserDto" style="swimlane;fontStyle=0;childLayout=stackLayout;horizontal=1;startSize=26;fillColor=none;horizontalStack=0;resizeParent=1;resizeParentMax=0;resizeLast=0;collapsible=1;marginBottom=0;fontSize=14;" vertex="1" parent="Z2O5uWB8J5TpZVNlAOfy-190">
          <mxGeometry x="50" y="27.002499999999998" width="170" height="125.75" as="geometry" />
        </mxCell>
        <mxCell id="Z2O5uWB8J5TpZVNlAOfy-145" value="- id: Long&#xa;" style="text;strokeColor=none;fillColor=none;align=left;verticalAlign=top;spacingLeft=4;spacingRight=4;overflow=hidden;rotatable=0;points=[[0,0.5],[1,0.5]];portConstraint=eastwest;fontSize=14;" vertex="1" parent="Z2O5uWB8J5TpZVNlAOfy-144">
          <mxGeometry y="26" width="170" height="21" as="geometry" />
        </mxCell>
        <mxCell id="Z2O5uWB8J5TpZVNlAOfy-146" value="- username: String&#xa;- password: String&#xa;- repeatPassword: String" style="text;strokeColor=none;fillColor=none;align=left;verticalAlign=top;spacingLeft=4;spacingRight=4;overflow=hidden;rotatable=0;points=[[0,0.5],[1,0.5]];portConstraint=eastwest;fontSize=14;" vertex="1" parent="Z2O5uWB8J5TpZVNlAOfy-144">
          <mxGeometry y="47" width="170" height="52.5" as="geometry" />
        </mxCell>
        <mxCell id="Z2O5uWB8J5TpZVNlAOfy-147" value="- avatar: MultiPartFile[]" style="text;strokeColor=none;fillColor=none;align=left;verticalAlign=top;spacingLeft=4;spacingRight=4;overflow=hidden;rotatable=0;points=[[0,0.5],[1,0.5]];portConstraint=eastwest;fontSize=14;" vertex="1" parent="Z2O5uWB8J5TpZVNlAOfy-144">
          <mxGeometry y="99.5" width="170" height="26.25" as="geometry" />
        </mxCell>
        <mxCell id="Z2O5uWB8J5TpZVNlAOfy-152" value="MultimediaDto" style="swimlane;fontStyle=0;childLayout=stackLayout;horizontal=1;startSize=26;fillColor=none;horizontalStack=0;resizeParent=1;resizeParentMax=0;resizeLast=0;collapsible=1;marginBottom=0;fontSize=14;" vertex="1" parent="Z2O5uWB8J5TpZVNlAOfy-190">
          <mxGeometry x="270" y="26.999999999999996" width="140" height="99.5" as="geometry" />
        </mxCell>
        <mxCell id="Z2O5uWB8J5TpZVNlAOfy-153" value="- contentType: String" style="text;strokeColor=none;fillColor=none;align=left;verticalAlign=top;spacingLeft=4;spacingRight=4;overflow=hidden;rotatable=0;points=[[0,0.5],[1,0.5]];portConstraint=eastwest;fontSize=14;" vertex="1" parent="Z2O5uWB8J5TpZVNlAOfy-152">
          <mxGeometry y="26" width="140" height="21" as="geometry" />
        </mxCell>
        <mxCell id="Z2O5uWB8J5TpZVNlAOfy-154" value="- path: Path" style="text;strokeColor=none;fillColor=none;align=left;verticalAlign=top;spacingLeft=4;spacingRight=4;overflow=hidden;rotatable=0;points=[[0,0.5],[1,0.5]];portConstraint=eastwest;fontSize=14;" vertex="1" parent="Z2O5uWB8J5TpZVNlAOfy-152">
          <mxGeometry y="47" width="140" height="26.25" as="geometry" />
        </mxCell>
        <mxCell id="Z2O5uWB8J5TpZVNlAOfy-155" value="- data: byte[]" style="text;strokeColor=none;fillColor=none;align=left;verticalAlign=top;spacingLeft=4;spacingRight=4;overflow=hidden;rotatable=0;points=[[0,0.5],[1,0.5]];portConstraint=eastwest;fontSize=14;" vertex="1" parent="Z2O5uWB8J5TpZVNlAOfy-152">
          <mxGeometry y="73.25" width="140" height="26.25" as="geometry" />
        </mxCell>
        <mxCell id="Z2O5uWB8J5TpZVNlAOfy-182" value="ChatMessage" style="swimlane;fontStyle=0;childLayout=stackLayout;horizontal=1;startSize=26;fillColor=none;horizontalStack=0;resizeParent=1;resizeParentMax=0;resizeLast=0;collapsible=1;marginBottom=0;fontSize=14;" vertex="1" parent="Z2O5uWB8J5TpZVNlAOfy-190">
          <mxGeometry x="470" y="27.002499999999998" width="150" height="110" as="geometry" />
        </mxCell>
        <mxCell id="Z2O5uWB8J5TpZVNlAOfy-183" value="- type: String        " style="text;strokeColor=none;fillColor=none;align=left;verticalAlign=top;spacingLeft=4;spacingRight=4;overflow=hidden;rotatable=0;points=[[0,0.5],[1,0.5]];portConstraint=eastwest;fontSize=14;" vertex="1" parent="Z2O5uWB8J5TpZVNlAOfy-182">
          <mxGeometry y="26" width="150" height="21" as="geometry" />
        </mxCell>
        <mxCell id="Z2O5uWB8J5TpZVNlAOfy-184" value="- content: String" style="text;strokeColor=none;fillColor=none;align=left;verticalAlign=top;spacingLeft=4;spacingRight=4;overflow=hidden;rotatable=0;points=[[0,0.5],[1,0.5]];portConstraint=eastwest;fontSize=14;" vertex="1" parent="Z2O5uWB8J5TpZVNlAOfy-182">
          <mxGeometry y="47" width="150" height="17.5" as="geometry" />
        </mxCell>
        <mxCell id="Z2O5uWB8J5TpZVNlAOfy-185" value="- senderName: String&#xa;- resieverName: String&#xa;" style="text;strokeColor=none;fillColor=none;align=left;verticalAlign=top;spacingLeft=4;spacingRight=4;overflow=hidden;rotatable=0;points=[[0,0.5],[1,0.5]];portConstraint=eastwest;fontSize=14;" vertex="1" parent="Z2O5uWB8J5TpZVNlAOfy-182">
          <mxGeometry y="64.5" width="150" height="45.5" as="geometry" />
        </mxCell>
        <mxCell id="Z2O5uWB8J5TpZVNlAOfy-200" value="" style="endArrow=classic;html=1;rounded=0;fontSize=15;" edge="1" parent="1" source="Z2O5uWB8J5TpZVNlAOfy-199" target="Z2O5uWB8J5TpZVNlAOfy-4">
          <mxGeometry width="50" height="50" relative="1" as="geometry">
            <mxPoint x="150" y="460" as="sourcePoint" />
            <mxPoint x="200" y="410" as="targetPoint" />
          </mxGeometry>
        </mxCell>
        <mxCell id="Z2O5uWB8J5TpZVNlAOfy-211" value="" style="group" vertex="1" connectable="0" parent="1">
          <mxGeometry x="-440" y="440" width="690" height="360" as="geometry" />
        </mxCell>
        <mxCell id="Z2O5uWB8J5TpZVNlAOfy-199" value="&lt;div align=&quot;left&quot;&gt;&lt;b&gt;WebSocket&lt;/b&gt;&lt;/div&gt;" style="rounded=0;whiteSpace=wrap;html=1;fontSize=15;align=left;" vertex="1" parent="Z2O5uWB8J5TpZVNlAOfy-211">
          <mxGeometry width="690" height="360" as="geometry" />
        </mxCell>
        <mxCell id="Z2O5uWB8J5TpZVNlAOfy-201" value="&lt;div&gt;«interface»&lt;/div&gt;&lt;div&gt;&lt;b&gt;WebSocketMessageBrokerConfigurer&lt;/b&gt;&lt;/div&gt;" style="html=1;fontSize=15;" vertex="1" parent="Z2O5uWB8J5TpZVNlAOfy-211">
          <mxGeometry x="225.30612244897958" y="26.666666666666664" width="394.2857142857143" height="66.66666666666666" as="geometry" />
        </mxCell>
        <mxCell id="Z2O5uWB8J5TpZVNlAOfy-202" value="WebSocketConfig" style="swimlane;fontStyle=1;align=center;verticalAlign=top;childLayout=stackLayout;horizontal=1;startSize=26;horizontalStack=0;resizeParent=1;resizeParentMax=0;resizeLast=0;collapsible=1;marginBottom=0;fontSize=15;" vertex="1" parent="Z2O5uWB8J5TpZVNlAOfy-211">
          <mxGeometry x="440" y="176.00333333333333" width="233.47" height="129.99666666666667" as="geometry" />
        </mxCell>
        <mxCell id="Z2O5uWB8J5TpZVNlAOfy-204" value="" style="line;strokeWidth=1;fillColor=none;align=left;verticalAlign=middle;spacingTop=-1;spacingLeft=3;spacingRight=3;rotatable=0;labelPosition=right;points=[];portConstraint=eastwest;fontSize=15;" vertex="1" parent="Z2O5uWB8J5TpZVNlAOfy-202">
          <mxGeometry y="26" width="233.47" height="10.666666666666666" as="geometry" />
        </mxCell>
        <mxCell id="Z2O5uWB8J5TpZVNlAOfy-205" value="+ registryStompEndpoints(&#xa;StompEndpointRegistry registry)&#xa;+ configureMessageBroker(&#xa;MessageBrokerRegistry registry)&#xa;" style="text;strokeColor=none;fillColor=none;align=left;verticalAlign=top;spacingLeft=4;spacingRight=4;overflow=hidden;rotatable=0;points=[[0,0.5],[1,0.5]];portConstraint=eastwest;fontSize=15;" vertex="1" parent="Z2O5uWB8J5TpZVNlAOfy-202">
          <mxGeometry y="36.666666666666664" width="233.47" height="93.33" as="geometry" />
        </mxCell>
        <mxCell id="Z2O5uWB8J5TpZVNlAOfy-206" value="WebSocketEventListener" style="swimlane;fontStyle=1;align=center;verticalAlign=top;childLayout=stackLayout;horizontal=1;startSize=26;horizontalStack=0;resizeParent=1;resizeParentMax=0;resizeLast=0;collapsible=1;marginBottom=0;fontSize=15;" vertex="1" parent="Z2O5uWB8J5TpZVNlAOfy-211">
          <mxGeometry x="120.00285714285714" y="122.66666666666666" width="300" height="219.99666666666667" as="geometry" />
        </mxCell>
        <mxCell id="Z2O5uWB8J5TpZVNlAOfy-207" value="- messageTemplate: &#xa;SimpMessageSendingOperatoins&#xa;- userService: UserService&#xa;- logger: Logger&#xa;&#xa;&#xa;&#xa;" style="text;strokeColor=none;fillColor=none;align=left;verticalAlign=top;spacingLeft=4;spacingRight=4;overflow=hidden;rotatable=0;points=[[0,0.5],[1,0.5]];portConstraint=eastwest;fontSize=15;" vertex="1" parent="Z2O5uWB8J5TpZVNlAOfy-206">
          <mxGeometry y="26" width="300" height="84" as="geometry" />
        </mxCell>
        <mxCell id="Z2O5uWB8J5TpZVNlAOfy-208" value="" style="line;strokeWidth=1;fillColor=none;align=left;verticalAlign=middle;spacingTop=-1;spacingLeft=3;spacingRight=3;rotatable=0;labelPosition=right;points=[];portConstraint=eastwest;fontSize=15;" vertex="1" parent="Z2O5uWB8J5TpZVNlAOfy-206">
          <mxGeometry y="110" width="300" height="10.666666666666666" as="geometry" />
        </mxCell>
        <mxCell id="Z2O5uWB8J5TpZVNlAOfy-209" value="+ connectListener(event: &#xa;SessionConnectEvent)&#xa;+ disconnectListener(event: &#xa;SessionConnectEvent)&#xa;" style="text;strokeColor=none;fillColor=none;align=left;verticalAlign=top;spacingLeft=4;spacingRight=4;overflow=hidden;rotatable=0;points=[[0,0.5],[1,0.5]];portConstraint=eastwest;fontSize=15;" vertex="1" parent="Z2O5uWB8J5TpZVNlAOfy-206">
          <mxGeometry y="120.66666666666667" width="300" height="99.33" as="geometry" />
        </mxCell>
        <mxCell id="Z2O5uWB8J5TpZVNlAOfy-210" value="" style="endArrow=block;dashed=1;endFill=0;endSize=12;html=1;rounded=0;fontSize=15;" edge="1" parent="Z2O5uWB8J5TpZVNlAOfy-211" source="Z2O5uWB8J5TpZVNlAOfy-201" target="Z2O5uWB8J5TpZVNlAOfy-202">
          <mxGeometry width="160" relative="1" as="geometry">
            <mxPoint y="720" as="sourcePoint" />
            <mxPoint x="225.30612244897958" y="720" as="targetPoint" />
          </mxGeometry>
        </mxCell>
        <mxCell id="Z2O5uWB8J5TpZVNlAOfy-212" value="" style="endArrow=classic;html=1;rounded=0;fontSize=15;" edge="1" parent="1" source="Z2O5uWB8J5TpZVNlAOfy-199" target="Z2O5uWB8J5TpZVNlAOfy-136">
          <mxGeometry width="50" height="50" relative="1" as="geometry">
            <mxPoint x="137.75" y="450" as="sourcePoint" />
            <mxPoint x="187.25" y="420" as="targetPoint" />
          </mxGeometry>
        </mxCell>
        <mxCell id="Z2O5uWB8J5TpZVNlAOfy-213" value="User" style="shape=umlActor;verticalLabelPosition=bottom;verticalAlign=top;html=1;fontSize=15;" vertex="1" parent="1">
          <mxGeometry x="-400" y="2070" width="30" height="60" as="geometry" />
        </mxCell>
        <mxCell id="Z2O5uWB8J5TpZVNlAOfy-214" value="&lt;b&gt;&lt;font style=&quot;font-size: 19px&quot;&gt;Диаграммы последовательностей&lt;/font&gt;&lt;/b&gt;" style="text;html=1;align=center;verticalAlign=middle;resizable=0;points=[];autosize=1;strokeColor=none;fillColor=none;fontSize=15;" vertex="1" parent="1">
          <mxGeometry x="40" y="1980" width="340" height="20" as="geometry" />
        </mxCell>
        <mxCell id="Z2O5uWB8J5TpZVNlAOfy-217" value="" style="html=1;points=[];perimeter=orthogonalPerimeter;fontSize=19;" vertex="1" parent="1">
          <mxGeometry x="-390" y="2200" width="10" height="320" as="geometry" />
        </mxCell>
        <mxCell id="Z2O5uWB8J5TpZVNlAOfy-218" value="" style="html=1;points=[];perimeter=orthogonalPerimeter;fontSize=19;" vertex="1" parent="1">
          <mxGeometry x="-85" y="2200" width="10" height="280" as="geometry" />
        </mxCell>
        <mxCell id="Z2O5uWB8J5TpZVNlAOfy-219" value="" style="html=1;points=[];perimeter=orthogonalPerimeter;fontSize=19;" vertex="1" parent="1">
          <mxGeometry x="190" y="2310" width="10" height="40" as="geometry" />
        </mxCell>
        <mxCell id="Z2O5uWB8J5TpZVNlAOfy-220" value="check Username, password " style="html=1;verticalAlign=bottom;endArrow=block;entryX=0;entryY=0;rounded=0;fontSize=19;" edge="1" target="Z2O5uWB8J5TpZVNlAOfy-219" parent="1" source="Z2O5uWB8J5TpZVNlAOfy-218">
          <mxGeometry x="-0.0566" y="10" relative="1" as="geometry">
            <mxPoint x="120" y="2270" as="sourcePoint" />
            <mxPoint as="offset" />
          </mxGeometry>
        </mxCell>
        <mxCell id="Z2O5uWB8J5TpZVNlAOfy-221" value="return" style="html=1;verticalAlign=bottom;endArrow=open;dashed=1;endSize=8;exitX=0;exitY=0.95;rounded=0;fontSize=19;" edge="1" source="Z2O5uWB8J5TpZVNlAOfy-219" parent="1" target="Z2O5uWB8J5TpZVNlAOfy-218">
          <mxGeometry relative="1" as="geometry">
            <mxPoint x="120" y="2346" as="targetPoint" />
          </mxGeometry>
        </mxCell>
        <mxCell id="Z2O5uWB8J5TpZVNlAOfy-224" value="" style="group" vertex="1" connectable="0" parent="1">
          <mxGeometry x="340" y="2410" width="120" height="110" as="geometry" />
        </mxCell>
        <mxCell id="Z2O5uWB8J5TpZVNlAOfy-222" value=":Enter form" style="rounded=0;whiteSpace=wrap;html=1;fontSize=19;" vertex="1" parent="Z2O5uWB8J5TpZVNlAOfy-224">
          <mxGeometry y="-20" width="120" height="60" as="geometry" />
        </mxCell>
        <mxCell id="Z2O5uWB8J5TpZVNlAOfy-223" value="" style="html=1;points=[];perimeter=orthogonalPerimeter;fontSize=19;" vertex="1" parent="Z2O5uWB8J5TpZVNlAOfy-224">
          <mxGeometry x="55" y="40" width="10" height="70" as="geometry" />
        </mxCell>
        <mxCell id="Z2O5uWB8J5TpZVNlAOfy-225" value="" style="endArrow=open;endFill=1;endSize=12;html=1;rounded=0;fontSize=19;" edge="1" parent="1" target="Z2O5uWB8J5TpZVNlAOfy-218">
          <mxGeometry width="160" relative="1" as="geometry">
            <mxPoint x="-380" y="2220" as="sourcePoint" />
            <mxPoint x="-220" y="2220" as="targetPoint" />
          </mxGeometry>
        </mxCell>
        <mxCell id="Z2O5uWB8J5TpZVNlAOfy-226" value="" style="endArrow=open;endFill=1;endSize=12;html=1;rounded=0;fontSize=19;" edge="1" parent="1">
          <mxGeometry width="160" relative="1" as="geometry">
            <mxPoint x="-380" y="2250" as="sourcePoint" />
            <mxPoint x="-85" y="2250" as="targetPoint" />
          </mxGeometry>
        </mxCell>
        <mxCell id="Z2O5uWB8J5TpZVNlAOfy-227" value="" style="endArrow=open;endFill=1;endSize=12;html=1;rounded=0;fontSize=19;" edge="1" parent="1">
          <mxGeometry width="160" relative="1" as="geometry">
            <mxPoint x="-380" y="2280" as="sourcePoint" />
            <mxPoint x="-85" y="2280" as="targetPoint" />
          </mxGeometry>
        </mxCell>
        <mxCell id="Z2O5uWB8J5TpZVNlAOfy-228" value=":Users table" style="shape=umlLifeline;perimeter=lifelinePerimeter;whiteSpace=wrap;html=1;container=1;collapsible=0;recursiveResize=0;outlineConnect=0;fontSize=19;" vertex="1" parent="1">
          <mxGeometry x="127.5" y="2080" width="135" height="440" as="geometry" />
        </mxCell>
        <mxCell id="Z2O5uWB8J5TpZVNlAOfy-229" value=":AuthForm" style="shape=umlLifeline;perimeter=lifelinePerimeter;whiteSpace=wrap;html=1;container=1;collapsible=0;recursiveResize=0;outlineConnect=0;fontSize=19;" vertex="1" parent="1">
          <mxGeometry x="-147.5" y="2080" width="135" height="440" as="geometry" />
        </mxCell>
        <mxCell id="Z2O5uWB8J5TpZVNlAOfy-245" value="" style="endArrow=none;html=1;rounded=0;fontSize=19;" edge="1" parent="Z2O5uWB8J5TpZVNlAOfy-229">
          <mxGeometry relative="1" as="geometry">
            <mxPoint x="27.5" y="360" as="sourcePoint" />
            <mxPoint x="107.5" y="360" as="targetPoint" />
            <Array as="points">
              <mxPoint x="67.5" y="300" />
            </Array>
          </mxGeometry>
        </mxCell>
        <mxCell id="Z2O5uWB8J5TpZVNlAOfy-234" value="" style="endArrow=open;endFill=1;endSize=12;html=1;rounded=0;fontSize=19;exitX=-0.088;exitY=0.793;exitDx=0;exitDy=0;exitPerimeter=0;" edge="1" parent="1" source="Z2O5uWB8J5TpZVNlAOfy-223" target="Z2O5uWB8J5TpZVNlAOfy-217">
          <mxGeometry width="160" relative="1" as="geometry">
            <mxPoint x="270" y="2440" as="sourcePoint" />
            <mxPoint x="430" y="2440" as="targetPoint" />
          </mxGeometry>
        </mxCell>
        <mxCell id="Z2O5uWB8J5TpZVNlAOfy-237" value="&lt;span class=&quot;VIiyi&quot; lang=&quot;en&quot;&gt;&lt;span class=&quot;JLqJ4b ChMk0b&quot;&gt;&lt;span class=&quot;Q4iAWc&quot;&gt;display&lt;/span&gt;&lt;/span&gt;&lt;/span&gt;" style="html=1;verticalAlign=bottom;endArrow=block;rounded=0;fontSize=19;exitX=0.029;exitY=0.281;exitDx=0;exitDy=0;exitPerimeter=0;" edge="1" parent="1" source="Z2O5uWB8J5TpZVNlAOfy-223" target="Z2O5uWB8J5TpZVNlAOfy-229">
          <mxGeometry x="-0.7257" y="40" width="80" relative="1" as="geometry">
            <mxPoint x="325" y="2470" as="sourcePoint" />
            <mxPoint x="-70" y="2470" as="targetPoint" />
            <mxPoint x="-1" as="offset" />
          </mxGeometry>
        </mxCell>
        <mxCell id="Z2O5uWB8J5TpZVNlAOfy-238" value="Close" style="text;html=1;align=center;verticalAlign=middle;resizable=0;points=[];autosize=1;strokeColor=none;fillColor=none;fontSize=19;" vertex="1" parent="1">
          <mxGeometry x="-40" y="2445" width="60" height="30" as="geometry" />
        </mxCell>
        <mxCell id="Z2O5uWB8J5TpZVNlAOfy-239" value="[true] &quot;create&quot;" style="html=1;verticalAlign=bottom;endArrow=block;rounded=0;fontSize=19;" edge="1" parent="1">
          <mxGeometry x="-0.3787" y="5" width="80" relative="1" as="geometry">
            <mxPoint x="-40" y="2440" as="sourcePoint" />
            <mxPoint x="340" y="2440" as="targetPoint" />
            <mxPoint as="offset" />
          </mxGeometry>
        </mxCell>
        <mxCell id="Z2O5uWB8J5TpZVNlAOfy-240" value="[False]" style="endArrow=open;endSize=12;dashed=1;html=1;rounded=0;fontSize=19;" edge="1" parent="1" target="Z2O5uWB8J5TpZVNlAOfy-217">
          <mxGeometry x="-0.4223" y="-18" width="160" relative="1" as="geometry">
            <mxPoint x="-120" y="2440" as="sourcePoint" />
            <mxPoint x="-147.5" y="2445" as="targetPoint" />
            <mxPoint x="1" as="offset" />
          </mxGeometry>
        </mxCell>
      </root>
    </mxGraphModel>
  </diagram>
</mxfile>
